<mxfile host="app.diagrams.net" modified="2022-11-25T15:18:23.746Z" agent="5.0 (Windows)" version="20.6.0" etag="Qf5qQoVVaJOgb8U5r2Q6" type="github">
  <diagram id="_ci9421NlBNcdpJC809w" name="Page-1">
    <mxGraphModel dx="2844" dy="1448" grid="1" gridSize="10" guides="1" tooltips="1" connect="1" arrows="1" fold="1" page="1" pageScale="1" pageWidth="827" pageHeight="1169" math="0" shadow="0">
      <root>
        <mxCell id="0" />
        <mxCell id="1" parent="0" />
        <UserObject label="Page d&#39;accueil" lucidchartObjectId="AYM.x1uL-YJM" id="ZJl0EIgOyHRKj7NYJLY0-1">
          <mxCell style="html=1;overflow=block;blockSpacing=1;whiteSpace=wrap;fontSize=16.7;fontColor=#3a414a;spacing=9;strokeColor=#3a414a;strokeOpacity=100;rounded=1;absoluteArcSize=1;arcSize=9;strokeWidth=0.8;" vertex="1" parent="1">
            <mxGeometry x="300" y="75" width="120" height="90" as="geometry" />
          </mxCell>
        </UserObject>
        <UserObject label="Première inscription" lucidchartObjectId="MYM.TeauDp_~" id="ZJl0EIgOyHRKj7NYJLY0-2">
          <mxCell style="html=1;overflow=block;blockSpacing=1;whiteSpace=wrap;fontSize=16.7;fontColor=#3a414a;spacing=9;strokeColor=#3a414a;strokeOpacity=100;rounded=1;absoluteArcSize=1;arcSize=9;strokeWidth=0.8;" vertex="1" parent="1">
            <mxGeometry x="120" y="210" width="120" height="90" as="geometry" />
          </mxCell>
        </UserObject>
        <UserObject label="Déjà inscrit" lucidchartObjectId="XYM..TXsvfSp" id="ZJl0EIgOyHRKj7NYJLY0-3">
          <mxCell style="html=1;overflow=block;blockSpacing=1;whiteSpace=wrap;fontSize=16.7;fontColor=#3a414a;spacing=9;strokeColor=#3a414a;strokeOpacity=100;rounded=1;absoluteArcSize=1;arcSize=9;strokeWidth=0.8;" vertex="1" parent="1">
            <mxGeometry x="465" y="210" width="120" height="90" as="geometry" />
          </mxCell>
        </UserObject>
        <UserObject label="Page de connection" lucidchartObjectId="6YM.qOHt7H16" id="ZJl0EIgOyHRKj7NYJLY0-4">
          <mxCell style="html=1;overflow=block;blockSpacing=1;whiteSpace=wrap;fontSize=16.7;fontColor=#3a414a;spacing=9;strokeColor=#3a414a;strokeOpacity=100;rounded=1;absoluteArcSize=1;arcSize=9;strokeWidth=0.8;" vertex="1" parent="1">
            <mxGeometry x="465" y="360" width="120" height="90" as="geometry" />
          </mxCell>
        </UserObject>
        <UserObject label="Consentement éclairé" lucidchartObjectId="sZM.cIIhJT13" id="ZJl0EIgOyHRKj7NYJLY0-5">
          <mxCell style="html=1;overflow=block;blockSpacing=1;whiteSpace=wrap;fontSize=16.7;fontColor=#3a414a;spacing=9;strokeColor=#3a414a;strokeOpacity=100;rounded=1;absoluteArcSize=1;arcSize=9;strokeWidth=0.8;" vertex="1" parent="1">
            <mxGeometry x="120" y="525" width="120" height="90" as="geometry" />
          </mxCell>
        </UserObject>
        <UserObject label="" lucidchartObjectId="CZM.1U02sdEx" id="ZJl0EIgOyHRKj7NYJLY0-6">
          <mxCell style="html=1;jettySize=18;whiteSpace=wrap;fontSize=13;strokeColor=#3a414a;strokeOpacity=100;strokeWidth=0.8;rounded=1;arcSize=12;edgeStyle=orthogonalEdgeStyle;startArrow=none;endArrow=block;endFill=1;exitX=0.5;exitY=1.004;exitPerimeter=0;entryX=0.5;entryY=-0.004;entryPerimeter=0;" edge="1" parent="1" source="ZJl0EIgOyHRKj7NYJLY0-1" target="ZJl0EIgOyHRKj7NYJLY0-2">
            <mxGeometry width="100" height="100" relative="1" as="geometry">
              <Array as="points" />
            </mxGeometry>
          </mxCell>
        </UserObject>
        <UserObject label="" lucidchartObjectId="GZM.cbZd91OO" id="ZJl0EIgOyHRKj7NYJLY0-7">
          <mxCell style="html=1;jettySize=18;whiteSpace=wrap;fontSize=13;strokeColor=#3a414a;strokeOpacity=100;strokeWidth=0.8;rounded=1;arcSize=12;edgeStyle=orthogonalEdgeStyle;startArrow=none;endArrow=block;endFill=1;exitX=0.5;exitY=1.004;exitPerimeter=0;entryX=0.5;entryY=-0.004;entryPerimeter=0;" edge="1" parent="1" source="ZJl0EIgOyHRKj7NYJLY0-1" target="ZJl0EIgOyHRKj7NYJLY0-3">
            <mxGeometry width="100" height="100" relative="1" as="geometry">
              <Array as="points" />
            </mxGeometry>
          </mxCell>
        </UserObject>
        <UserObject label="" lucidchartObjectId="K0M.znqZ1N4W" id="ZJl0EIgOyHRKj7NYJLY0-8">
          <mxCell style="html=1;jettySize=18;whiteSpace=wrap;fontSize=13;strokeColor=#3a414a;strokeOpacity=100;strokeWidth=0.8;rounded=1;arcSize=12;edgeStyle=orthogonalEdgeStyle;startArrow=none;endArrow=block;endFill=1;exitX=0.5;exitY=1.004;exitPerimeter=0;entryX=0.5;entryY=-0.004;entryPerimeter=0;" edge="1" parent="1" source="ZJl0EIgOyHRKj7NYJLY0-3" target="ZJl0EIgOyHRKj7NYJLY0-4">
            <mxGeometry width="100" height="100" relative="1" as="geometry">
              <Array as="points" />
            </mxGeometry>
          </mxCell>
        </UserObject>
        <UserObject label="Chercheur" lucidchartObjectId="w1M.sj6_KKEo" id="ZJl0EIgOyHRKj7NYJLY0-9">
          <mxCell style="html=1;overflow=block;blockSpacing=1;whiteSpace=wrap;fontSize=16.7;fontColor=#3a414a;spacing=9;strokeColor=#3a414a;strokeOpacity=100;rounded=1;absoluteArcSize=1;arcSize=9;strokeWidth=0.8;" vertex="1" parent="1">
            <mxGeometry x="795" y="360" width="120" height="90" as="geometry" />
          </mxCell>
        </UserObject>
        <UserObject label="Carnet Enseignant" lucidchartObjectId="C1M.ppYRKkeI" id="ZJl0EIgOyHRKj7NYJLY0-10">
          <mxCell style="html=1;overflow=block;blockSpacing=1;whiteSpace=wrap;fontSize=16.7;fontColor=#3a414a;spacing=9;strokeColor=#3a414a;strokeOpacity=100;rounded=1;absoluteArcSize=1;arcSize=9;strokeWidth=0.8;" vertex="1" parent="1">
            <mxGeometry x="795" y="480" width="120" height="90" as="geometry" />
          </mxCell>
        </UserObject>
        <UserObject label="Carnet Etudiant" lucidchartObjectId="M1M.uTfTiG7-" id="ZJl0EIgOyHRKj7NYJLY0-11">
          <mxCell style="html=1;overflow=block;blockSpacing=1;whiteSpace=wrap;fontSize=16.7;fontColor=#3a414a;spacing=9;strokeColor=#3a414a;strokeOpacity=100;rounded=1;absoluteArcSize=1;arcSize=9;strokeWidth=0.8;" vertex="1" parent="1">
            <mxGeometry x="795" y="615" width="120" height="90" as="geometry" />
          </mxCell>
        </UserObject>
        <UserObject label="" lucidchartObjectId="S1M.Ud4jqxVt" id="ZJl0EIgOyHRKj7NYJLY0-12">
          <mxCell style="html=1;jettySize=18;whiteSpace=wrap;fontSize=13;strokeColor=#3a414a;strokeOpacity=100;strokeWidth=0.8;rounded=1;arcSize=12;edgeStyle=orthogonalEdgeStyle;startArrow=none;endArrow=block;endFill=1;exitX=1.003;exitY=0.5;exitPerimeter=0;entryX=-0.003;entryY=0.5;entryPerimeter=0;" edge="1" parent="1" source="ZJl0EIgOyHRKj7NYJLY0-4" target="ZJl0EIgOyHRKj7NYJLY0-9">
            <mxGeometry width="100" height="100" relative="1" as="geometry">
              <Array as="points" />
            </mxGeometry>
          </mxCell>
        </UserObject>
        <UserObject label="" lucidchartObjectId="X1M.3m_ycjZD" id="ZJl0EIgOyHRKj7NYJLY0-13">
          <mxCell style="html=1;jettySize=18;whiteSpace=wrap;fontSize=13;strokeColor=#3a414a;strokeOpacity=100;strokeWidth=0.8;rounded=1;arcSize=12;edgeStyle=orthogonalEdgeStyle;startArrow=none;endArrow=block;endFill=1;exitX=1.003;exitY=0.5;exitPerimeter=0;entryX=-0.003;entryY=0.5;entryPerimeter=0;" edge="1" parent="1" source="ZJl0EIgOyHRKj7NYJLY0-4" target="ZJl0EIgOyHRKj7NYJLY0-10">
            <mxGeometry width="100" height="100" relative="1" as="geometry">
              <Array as="points" />
            </mxGeometry>
          </mxCell>
        </UserObject>
        <UserObject label="" lucidchartObjectId="01M.pc18l_iM" id="ZJl0EIgOyHRKj7NYJLY0-14">
          <mxCell style="html=1;jettySize=18;whiteSpace=wrap;fontSize=13;strokeColor=#3a414a;strokeOpacity=100;strokeWidth=0.8;rounded=1;arcSize=12;edgeStyle=orthogonalEdgeStyle;startArrow=none;endArrow=block;endFill=1;exitX=1.003;exitY=0.5;exitPerimeter=0;entryX=-0.003;entryY=0.5;entryPerimeter=0;" edge="1" parent="1" source="ZJl0EIgOyHRKj7NYJLY0-4" target="ZJl0EIgOyHRKj7NYJLY0-11">
            <mxGeometry width="100" height="100" relative="1" as="geometry">
              <Array as="points" />
            </mxGeometry>
          </mxCell>
        </UserObject>
        <UserObject label="Gestion par récolteur" lucidchartObjectId="-1M.Er1j2mVA" id="ZJl0EIgOyHRKj7NYJLY0-15">
          <mxCell style="html=1;overflow=block;blockSpacing=1;whiteSpace=wrap;fontSize=16.7;fontColor=#3a414a;spacing=9;strokeColor=#3a414a;strokeOpacity=100;rounded=1;absoluteArcSize=1;arcSize=9;strokeWidth=0.8;" vertex="1" parent="1">
            <mxGeometry x="1005" y="210" width="120" height="90" as="geometry" />
          </mxCell>
        </UserObject>
        <UserObject label="Gestion des données des récolteurs" lucidchartObjectId="l2M.fHgAraxA" id="ZJl0EIgOyHRKj7NYJLY0-16">
          <mxCell style="html=1;overflow=block;blockSpacing=1;whiteSpace=wrap;fontSize=16.7;fontColor=#3a414a;spacing=9;strokeColor=#3a414a;strokeOpacity=100;rounded=1;absoluteArcSize=1;arcSize=9;strokeWidth=0.8;" vertex="1" parent="1">
            <mxGeometry x="1005" y="330" width="120" height="90" as="geometry" />
          </mxCell>
        </UserObject>
        <UserObject label="" lucidchartObjectId="O2M.XnSvlfPc" id="ZJl0EIgOyHRKj7NYJLY0-17">
          <mxCell style="html=1;jettySize=18;whiteSpace=wrap;fontSize=13;strokeColor=#3a414a;strokeOpacity=100;strokeWidth=0.8;rounded=1;arcSize=12;edgeStyle=orthogonalEdgeStyle;startArrow=none;endArrow=block;endFill=1;exitX=1.003;exitY=0.5;exitPerimeter=0;entryX=-0.003;entryY=0.5;entryPerimeter=0;" edge="1" parent="1" source="ZJl0EIgOyHRKj7NYJLY0-9" target="ZJl0EIgOyHRKj7NYJLY0-15">
            <mxGeometry width="100" height="100" relative="1" as="geometry">
              <Array as="points" />
            </mxGeometry>
          </mxCell>
        </UserObject>
        <UserObject label="" lucidchartObjectId="R2M.baxbEa5R" id="ZJl0EIgOyHRKj7NYJLY0-18">
          <mxCell style="html=1;jettySize=18;whiteSpace=wrap;fontSize=13;strokeColor=#3a414a;strokeOpacity=100;strokeWidth=0.8;rounded=1;arcSize=12;edgeStyle=orthogonalEdgeStyle;startArrow=none;endArrow=block;endFill=1;exitX=1.003;exitY=0.5;exitPerimeter=0;entryX=-0.003;entryY=0.5;entryPerimeter=0;" edge="1" parent="1" source="ZJl0EIgOyHRKj7NYJLY0-9" target="ZJl0EIgOyHRKj7NYJLY0-16">
            <mxGeometry width="100" height="100" relative="1" as="geometry">
              <Array as="points" />
            </mxGeometry>
          </mxCell>
        </UserObject>
        <UserObject label="Vue d&#39;ensemble du carnet" lucidchartObjectId="Y4M.zDFyay5S" id="ZJl0EIgOyHRKj7NYJLY0-19">
          <mxCell style="html=1;overflow=block;blockSpacing=1;whiteSpace=wrap;fontSize=16.7;fontColor=#3a414a;spacing=9;strokeColor=#3a414a;strokeOpacity=100;rounded=1;absoluteArcSize=1;arcSize=9;strokeWidth=0.8;" vertex="1" parent="1">
            <mxGeometry x="1448" y="480" width="120" height="90" as="geometry" />
          </mxCell>
        </UserObject>
        <UserObject label="Rédiger une nouvelle entrée" lucidchartObjectId="_4M.7PR6vPwe" id="ZJl0EIgOyHRKj7NYJLY0-20">
          <mxCell style="html=1;overflow=block;blockSpacing=1;whiteSpace=wrap;fontSize=16.7;fontColor=#3a414a;spacing=9;strokeColor=#3a414a;strokeOpacity=100;rounded=1;absoluteArcSize=1;arcSize=9;strokeWidth=0.8;" vertex="1" parent="1">
            <mxGeometry x="1448" y="615" width="120" height="90" as="geometry" />
          </mxCell>
        </UserObject>
        <UserObject label="Panel de mes outils/ressources numériques" lucidchartObjectId="k5M.eeymHfns" id="ZJl0EIgOyHRKj7NYJLY0-21">
          <mxCell style="html=1;overflow=block;blockSpacing=1;whiteSpace=wrap;fontSize=16.7;fontColor=#3a414a;spacing=9;strokeColor=#3a414a;strokeOpacity=100;rounded=1;absoluteArcSize=1;arcSize=9;strokeWidth=0.8;" vertex="1" parent="1">
            <mxGeometry x="1448" y="739" width="143" height="90" as="geometry" />
          </mxCell>
        </UserObject>
        <UserObject label="Mon profil" lucidchartObjectId="z5M.NGDG9icv" id="ZJl0EIgOyHRKj7NYJLY0-22">
          <mxCell style="html=1;overflow=block;blockSpacing=1;whiteSpace=wrap;fontSize=16.7;fontColor=#3a414a;spacing=9;strokeColor=#3a414a;strokeOpacity=100;rounded=1;absoluteArcSize=1;arcSize=9;strokeWidth=0.8;" vertex="1" parent="1">
            <mxGeometry x="1448" y="859" width="120" height="90" as="geometry" />
          </mxCell>
        </UserObject>
        <UserObject label="Mes documents" lucidchartObjectId="I5M.~AWtkIlP" id="ZJl0EIgOyHRKj7NYJLY0-23">
          <mxCell style="html=1;overflow=block;blockSpacing=1;whiteSpace=wrap;fontSize=16.7;fontColor=#3a414a;spacing=9;strokeColor=#3a414a;strokeOpacity=100;rounded=1;absoluteArcSize=1;arcSize=9;strokeWidth=0.8;" vertex="1" parent="1">
            <mxGeometry x="1448" y="994" width="120" height="90" as="geometry" />
          </mxCell>
        </UserObject>
        <UserObject label="Paramètres" lucidchartObjectId="Q5M.YRusNy6M" id="ZJl0EIgOyHRKj7NYJLY0-24">
          <mxCell style="html=1;overflow=block;blockSpacing=1;whiteSpace=wrap;fontSize=16.7;fontColor=#3a414a;spacing=9;strokeColor=#3a414a;strokeOpacity=100;rounded=1;absoluteArcSize=1;arcSize=9;strokeWidth=0.8;" vertex="1" parent="1">
            <mxGeometry x="1448" y="1294" width="120" height="90" as="geometry" />
          </mxCell>
        </UserObject>
        <mxCell id="ZJl0EIgOyHRKj7NYJLY0-86" style="edgeStyle=orthogonalEdgeStyle;rounded=0;orthogonalLoop=1;jettySize=auto;html=1;entryX=0;entryY=0.75;entryDx=0;entryDy=0;" edge="1" parent="1" source="ZJl0EIgOyHRKj7NYJLY0-25" target="ZJl0EIgOyHRKj7NYJLY0-81">
          <mxGeometry relative="1" as="geometry" />
        </mxCell>
        <mxCell id="ZJl0EIgOyHRKj7NYJLY0-87" style="edgeStyle=orthogonalEdgeStyle;rounded=0;orthogonalLoop=1;jettySize=auto;html=1;entryX=0;entryY=0.5;entryDx=0;entryDy=0;" edge="1" parent="1" source="ZJl0EIgOyHRKj7NYJLY0-25" target="ZJl0EIgOyHRKj7NYJLY0-80">
          <mxGeometry relative="1" as="geometry" />
        </mxCell>
        <mxCell id="ZJl0EIgOyHRKj7NYJLY0-88" style="edgeStyle=orthogonalEdgeStyle;rounded=0;orthogonalLoop=1;jettySize=auto;html=1;entryX=0;entryY=0.5;entryDx=0;entryDy=0;" edge="1" parent="1" source="ZJl0EIgOyHRKj7NYJLY0-25" target="ZJl0EIgOyHRKj7NYJLY0-79">
          <mxGeometry relative="1" as="geometry" />
        </mxCell>
        <UserObject label="Contact besoin d&#39;aide" lucidchartObjectId="X5M.JyQG0hy0" id="ZJl0EIgOyHRKj7NYJLY0-25">
          <mxCell style="html=1;overflow=block;blockSpacing=1;whiteSpace=wrap;fontSize=16.7;fontColor=#3a414a;spacing=9;strokeColor=#3a414a;strokeOpacity=100;rounded=1;absoluteArcSize=1;arcSize=9;strokeWidth=0.8;" vertex="1" parent="1">
            <mxGeometry x="1440" y="1680" width="120" height="90" as="geometry" />
          </mxCell>
        </UserObject>
        <UserObject label="Tout effacer" lucidchartObjectId="75M.VQ58b_Jm" id="ZJl0EIgOyHRKj7NYJLY0-26">
          <mxCell style="html=1;overflow=block;blockSpacing=1;whiteSpace=wrap;fontSize=16.7;fontColor=#3a414a;spacing=9;strokeColor=#3a414a;strokeOpacity=100;rounded=1;absoluteArcSize=1;arcSize=9;strokeWidth=0.8;" vertex="1" parent="1">
            <mxGeometry x="1440" y="1815" width="120" height="90" as="geometry" />
          </mxCell>
        </UserObject>
        <UserObject label="Se déconnecter" lucidchartObjectId="b6M.UAQ0L-1w" id="ZJl0EIgOyHRKj7NYJLY0-27">
          <mxCell style="html=1;overflow=block;blockSpacing=1;whiteSpace=wrap;fontSize=16.7;fontColor=#3a414a;spacing=9;strokeColor=#3a414a;strokeOpacity=100;rounded=1;absoluteArcSize=1;arcSize=9;strokeWidth=0.8;" vertex="1" parent="1">
            <mxGeometry x="1440" y="1950" width="120" height="90" as="geometry" />
          </mxCell>
        </UserObject>
        <UserObject label="Menu de navigation" lucidchartObjectId="X6M.t33oavB." id="ZJl0EIgOyHRKj7NYJLY0-28">
          <mxCell style="html=1;overflow=block;blockSpacing=1;whiteSpace=wrap;fontSize=16.7;fontColor=#3a414a;spacing=9;strokeColor=#3a414a;strokeOpacity=100;rounded=1;absoluteArcSize=1;arcSize=9;strokeWidth=0.8;" vertex="1" parent="1">
            <mxGeometry x="1185" y="540" width="120" height="90" as="geometry" />
          </mxCell>
        </UserObject>
        <UserObject label="" lucidchartObjectId="V7M.rNvB-Zm." id="ZJl0EIgOyHRKj7NYJLY0-29">
          <mxCell style="html=1;jettySize=18;whiteSpace=wrap;fontSize=13;strokeColor=#3a414a;strokeOpacity=100;strokeWidth=0.8;rounded=1;arcSize=12;edgeStyle=orthogonalEdgeStyle;startArrow=none;endArrow=block;endFill=1;exitX=1.003;exitY=0.5;exitPerimeter=0;entryX=-0.003;entryY=0.5;entryPerimeter=0;" edge="1" parent="1" source="ZJl0EIgOyHRKj7NYJLY0-28" target="ZJl0EIgOyHRKj7NYJLY0-19">
            <mxGeometry width="100" height="100" relative="1" as="geometry">
              <Array as="points" />
            </mxGeometry>
          </mxCell>
        </UserObject>
        <UserObject label="" lucidchartObjectId="Y7M.1pc6Li9~" id="ZJl0EIgOyHRKj7NYJLY0-30">
          <mxCell style="html=1;jettySize=18;whiteSpace=wrap;fontSize=13;strokeColor=#3a414a;strokeOpacity=100;strokeWidth=0.8;rounded=1;arcSize=12;edgeStyle=orthogonalEdgeStyle;startArrow=none;endArrow=block;endFill=1;exitX=1.003;exitY=0.5;exitPerimeter=0;entryX=-0.003;entryY=0.5;entryPerimeter=0;" edge="1" parent="1" source="ZJl0EIgOyHRKj7NYJLY0-28" target="ZJl0EIgOyHRKj7NYJLY0-20">
            <mxGeometry width="100" height="100" relative="1" as="geometry">
              <Array as="points" />
            </mxGeometry>
          </mxCell>
        </UserObject>
        <UserObject label="" lucidchartObjectId="07M.KI43_F6G" id="ZJl0EIgOyHRKj7NYJLY0-31">
          <mxCell style="html=1;jettySize=18;whiteSpace=wrap;fontSize=13;strokeColor=#3a414a;strokeOpacity=100;strokeWidth=0.8;rounded=1;arcSize=12;edgeStyle=orthogonalEdgeStyle;startArrow=none;endArrow=block;endFill=1;exitX=1.003;exitY=0.5;exitPerimeter=0;entryX=-0.002;entryY=0.5;entryPerimeter=0;" edge="1" parent="1" source="ZJl0EIgOyHRKj7NYJLY0-28" target="ZJl0EIgOyHRKj7NYJLY0-21">
            <mxGeometry width="100" height="100" relative="1" as="geometry">
              <Array as="points" />
            </mxGeometry>
          </mxCell>
        </UserObject>
        <UserObject label="" lucidchartObjectId="57M.BthRDHTk" id="ZJl0EIgOyHRKj7NYJLY0-32">
          <mxCell style="html=1;jettySize=18;whiteSpace=wrap;fontSize=13;strokeColor=#3a414a;strokeOpacity=100;strokeWidth=0.8;rounded=1;arcSize=12;edgeStyle=orthogonalEdgeStyle;startArrow=none;endArrow=block;endFill=1;exitX=1.003;exitY=0.5;exitPerimeter=0;entryX=-0.003;entryY=0.5;entryPerimeter=0;" edge="1" parent="1" source="ZJl0EIgOyHRKj7NYJLY0-28" target="ZJl0EIgOyHRKj7NYJLY0-22">
            <mxGeometry width="100" height="100" relative="1" as="geometry">
              <Array as="points" />
            </mxGeometry>
          </mxCell>
        </UserObject>
        <UserObject label="" lucidchartObjectId="97M.U5-g1r-L" id="ZJl0EIgOyHRKj7NYJLY0-33">
          <mxCell style="html=1;jettySize=18;whiteSpace=wrap;fontSize=13;strokeColor=#3a414a;strokeOpacity=100;strokeWidth=0.8;rounded=1;arcSize=12;edgeStyle=orthogonalEdgeStyle;startArrow=none;endArrow=block;endFill=1;exitX=1.003;exitY=0.5;exitPerimeter=0;entryX=-0.003;entryY=0.5;entryPerimeter=0;" edge="1" parent="1" source="ZJl0EIgOyHRKj7NYJLY0-28" target="ZJl0EIgOyHRKj7NYJLY0-23">
            <mxGeometry width="100" height="100" relative="1" as="geometry">
              <Array as="points" />
            </mxGeometry>
          </mxCell>
        </UserObject>
        <UserObject label="" lucidchartObjectId=".7M.mwq7F4k_" id="ZJl0EIgOyHRKj7NYJLY0-34">
          <mxCell style="html=1;jettySize=18;whiteSpace=wrap;fontSize=13;strokeColor=#3a414a;strokeOpacity=100;strokeWidth=0.8;rounded=1;arcSize=12;edgeStyle=orthogonalEdgeStyle;startArrow=none;endArrow=block;endFill=1;exitX=1.003;exitY=0.5;exitPerimeter=0;entryX=-0.003;entryY=0.5;entryPerimeter=0;" edge="1" parent="1" source="ZJl0EIgOyHRKj7NYJLY0-28" target="ZJl0EIgOyHRKj7NYJLY0-24">
            <mxGeometry width="100" height="100" relative="1" as="geometry">
              <Array as="points" />
            </mxGeometry>
          </mxCell>
        </UserObject>
        <UserObject label="" lucidchartObjectId="d8M.SYVjxC_h" id="ZJl0EIgOyHRKj7NYJLY0-35">
          <mxCell style="html=1;jettySize=18;whiteSpace=wrap;fontSize=13;strokeColor=#3a414a;strokeOpacity=100;strokeWidth=0.8;rounded=1;arcSize=12;edgeStyle=orthogonalEdgeStyle;startArrow=none;endArrow=block;endFill=1;exitX=1.003;exitY=0.5;exitPerimeter=0;entryX=-0.003;entryY=0.5;entryPerimeter=0;" edge="1" parent="1" source="ZJl0EIgOyHRKj7NYJLY0-28" target="ZJl0EIgOyHRKj7NYJLY0-25">
            <mxGeometry width="100" height="100" relative="1" as="geometry">
              <Array as="points" />
            </mxGeometry>
          </mxCell>
        </UserObject>
        <UserObject label="" lucidchartObjectId="r8M.o4ZUcG-L" id="ZJl0EIgOyHRKj7NYJLY0-36">
          <mxCell style="html=1;jettySize=18;whiteSpace=wrap;fontSize=13;strokeColor=#3a414a;strokeOpacity=100;strokeWidth=0.8;rounded=1;arcSize=12;edgeStyle=orthogonalEdgeStyle;startArrow=none;endArrow=block;endFill=1;exitX=1.003;exitY=0.5;exitPerimeter=0;entryX=-0.003;entryY=0.5;entryPerimeter=0;" edge="1" parent="1" source="ZJl0EIgOyHRKj7NYJLY0-28" target="ZJl0EIgOyHRKj7NYJLY0-26">
            <mxGeometry width="100" height="100" relative="1" as="geometry">
              <Array as="points" />
            </mxGeometry>
          </mxCell>
        </UserObject>
        <UserObject label="" lucidchartObjectId="w8M.DC7A0Nvr" id="ZJl0EIgOyHRKj7NYJLY0-37">
          <mxCell style="html=1;jettySize=18;whiteSpace=wrap;fontSize=13;strokeColor=#3a414a;strokeOpacity=100;strokeWidth=0.8;rounded=1;arcSize=12;edgeStyle=orthogonalEdgeStyle;startArrow=none;endArrow=block;endFill=1;exitX=1.003;exitY=0.5;exitPerimeter=0;entryX=-0.003;entryY=0.5;entryPerimeter=0;" edge="1" parent="1" source="ZJl0EIgOyHRKj7NYJLY0-28" target="ZJl0EIgOyHRKj7NYJLY0-27">
            <mxGeometry width="100" height="100" relative="1" as="geometry">
              <Array as="points" />
            </mxGeometry>
          </mxCell>
        </UserObject>
        <UserObject label="Page de renseignements" lucidchartObjectId="T~M.V6R66Jr2" id="ZJl0EIgOyHRKj7NYJLY0-38">
          <mxCell style="html=1;overflow=block;blockSpacing=1;whiteSpace=wrap;fontSize=16.7;fontColor=#3a414a;spacing=9;strokeColor=#3a414a;strokeOpacity=100;rounded=1;absoluteArcSize=1;arcSize=9;strokeWidth=0.8;" vertex="1" parent="1">
            <mxGeometry x="120" y="375" width="120" height="90" as="geometry" />
          </mxCell>
        </UserObject>
        <UserObject label="" lucidchartObjectId="baN.W74zy4RS" id="ZJl0EIgOyHRKj7NYJLY0-39">
          <mxCell style="html=1;jettySize=18;whiteSpace=wrap;fontSize=13;strokeColor=#3a414a;strokeOpacity=100;strokeWidth=0.8;rounded=1;arcSize=12;edgeStyle=orthogonalEdgeStyle;startArrow=none;endArrow=block;endFill=1;exitX=0.5;exitY=1.004;exitPerimeter=0;entryX=0.5;entryY=-0.004;entryPerimeter=0;" edge="1" parent="1" source="ZJl0EIgOyHRKj7NYJLY0-2" target="ZJl0EIgOyHRKj7NYJLY0-38">
            <mxGeometry width="100" height="100" relative="1" as="geometry">
              <Array as="points" />
            </mxGeometry>
          </mxCell>
        </UserObject>
        <UserObject label="" lucidchartObjectId="caN.kgK3lv72" id="ZJl0EIgOyHRKj7NYJLY0-40">
          <mxCell style="html=1;jettySize=18;whiteSpace=wrap;fontSize=13;strokeColor=#3a414a;strokeOpacity=100;strokeWidth=0.8;rounded=1;arcSize=12;edgeStyle=orthogonalEdgeStyle;startArrow=none;endArrow=block;endFill=1;exitX=0.5;exitY=1.004;exitPerimeter=0;entryX=0.5;entryY=-0.004;entryPerimeter=0;" edge="1" parent="1" source="ZJl0EIgOyHRKj7NYJLY0-38" target="ZJl0EIgOyHRKj7NYJLY0-5">
            <mxGeometry width="100" height="100" relative="1" as="geometry">
              <Array as="points" />
            </mxGeometry>
          </mxCell>
        </UserObject>
        <UserObject label="" lucidchartObjectId="faN.zr2yzNM4" id="ZJl0EIgOyHRKj7NYJLY0-41">
          <mxCell style="html=1;jettySize=18;whiteSpace=wrap;fontSize=13;strokeColor=#3a414a;strokeOpacity=100;strokeWidth=0.8;rounded=1;arcSize=12;edgeStyle=orthogonalEdgeStyle;startArrow=none;endArrow=block;endFill=1;exitX=1.003;exitY=0.5;exitPerimeter=0;entryX=0.5;entryY=1.004;entryPerimeter=0;" edge="1" parent="1" source="ZJl0EIgOyHRKj7NYJLY0-5" target="ZJl0EIgOyHRKj7NYJLY0-4">
            <mxGeometry width="100" height="100" relative="1" as="geometry">
              <Array as="points" />
            </mxGeometry>
          </mxCell>
        </UserObject>
        <mxCell id="ZJl0EIgOyHRKj7NYJLY0-42" value="" style="strokeColor=none;fillColor=none;whiteSpace=wrap;fontSize=16.7;fontColor=#3a414a;spacing=3.8;strokeOpacity=100;rounded=1;absoluteArcSize=1;arcSize=9;strokeWidth=0.8;html=1;" vertex="1" parent="1">
          <mxGeometry x="255" y="360" width="195" height="150" as="geometry" />
        </mxCell>
        <mxCell id="ZJl0EIgOyHRKj7NYJLY0-43" value="" style="shape=curlyBracket;rounded=1;flipH=1;whiteSpace=wrap;fontSize=16.7;fontColor=#3a414a;spacing=3.8;strokeColor=#3a414a;strokeOpacity=100;strokeWidth=0.8;" vertex="1" parent="ZJl0EIgOyHRKj7NYJLY0-42">
          <mxGeometry width="18.75" height="150" as="geometry" />
        </mxCell>
        <mxCell id="ZJl0EIgOyHRKj7NYJLY0-44" value="-Pseudo&#xa;-Ecole&#xa;-Date de naissance&#xa;-Ancienneté/Année de formation&#xa;-Sexe" style="strokeColor=none;fillColor=none;whiteSpace=wrap;fontSize=16.7;fontColor=#3a414a;spacing=3.8;strokeOpacity=100;rounded=1;absoluteArcSize=1;arcSize=9;strokeWidth=0.8;" vertex="1" parent="ZJl0EIgOyHRKj7NYJLY0-42">
          <mxGeometry x="18.75" width="176.25" height="150" as="geometry" />
        </mxCell>
        <mxCell id="ZJl0EIgOyHRKj7NYJLY0-45" value="" style="strokeColor=none;fillColor=none;whiteSpace=wrap;fontSize=16.7;fontColor=#3a414a;spacing=3.8;strokeOpacity=100;rounded=1;absoluteArcSize=1;arcSize=9;strokeWidth=0.8;html=1;" vertex="1" parent="1">
          <mxGeometry x="1575" y="848" width="225" height="120" as="geometry" />
        </mxCell>
        <mxCell id="ZJl0EIgOyHRKj7NYJLY0-46" value="" style="shape=curlyBracket;rounded=1;flipH=1;whiteSpace=wrap;fontSize=16.7;fontColor=#3a414a;spacing=3.8;strokeColor=#3a414a;strokeOpacity=100;strokeWidth=0.8;" vertex="1" parent="ZJl0EIgOyHRKj7NYJLY0-45">
          <mxGeometry width="15" height="120" as="geometry" />
        </mxCell>
        <mxCell id="ZJl0EIgOyHRKj7NYJLY0-47" value="-Photo de profil&#xa;-Infos inscription&#xa;-Mail&#xa;-Préférences" style="strokeColor=none;fillColor=none;whiteSpace=wrap;fontSize=16.7;fontColor=#3a414a;spacing=3.8;strokeOpacity=100;rounded=1;absoluteArcSize=1;arcSize=9;strokeWidth=0.8;" vertex="1" parent="ZJl0EIgOyHRKj7NYJLY0-45">
          <mxGeometry x="15" width="210" height="120" as="geometry" />
        </mxCell>
        <UserObject label="Télécharger" lucidchartObjectId="PfN.~X66MR.y" id="ZJl0EIgOyHRKj7NYJLY0-48">
          <mxCell style="html=1;overflow=block;blockSpacing=1;whiteSpace=wrap;fontSize=16.7;fontColor=#3a414a;spacing=9;strokeColor=#3a414a;strokeOpacity=100;rounded=1;absoluteArcSize=1;arcSize=9;strokeWidth=0.8;" vertex="1" parent="1">
            <mxGeometry x="1658" y="979" width="120" height="90" as="geometry" />
          </mxCell>
        </UserObject>
        <UserObject label="Visualiser" lucidchartObjectId="1fN.-rpawTm7" id="ZJl0EIgOyHRKj7NYJLY0-49">
          <mxCell style="html=1;overflow=block;blockSpacing=1;whiteSpace=wrap;fontSize=16.7;fontColor=#3a414a;spacing=9;strokeColor=#3a414a;strokeOpacity=100;rounded=1;absoluteArcSize=1;arcSize=9;strokeWidth=0.8;" vertex="1" parent="1">
            <mxGeometry x="1658" y="1084" width="120" height="90" as="geometry" />
          </mxCell>
        </UserObject>
        <UserObject label="" lucidchartObjectId="9fN.eXcLydWo" id="ZJl0EIgOyHRKj7NYJLY0-50">
          <mxCell style="html=1;jettySize=18;whiteSpace=wrap;fontSize=13;strokeColor=#3a414a;strokeOpacity=100;strokeWidth=0.8;rounded=1;arcSize=12;edgeStyle=orthogonalEdgeStyle;startArrow=none;endArrow=block;endFill=1;exitX=1.003;exitY=0.5;exitPerimeter=0;entryX=-0.003;entryY=0.5;entryPerimeter=0;" edge="1" parent="1" source="ZJl0EIgOyHRKj7NYJLY0-23" target="ZJl0EIgOyHRKj7NYJLY0-48">
            <mxGeometry width="100" height="100" relative="1" as="geometry">
              <Array as="points" />
            </mxGeometry>
          </mxCell>
        </UserObject>
        <UserObject label="" lucidchartObjectId="~fN.um6W2-5L" id="ZJl0EIgOyHRKj7NYJLY0-51">
          <mxCell style="html=1;jettySize=18;whiteSpace=wrap;fontSize=13;strokeColor=#3a414a;strokeOpacity=100;strokeWidth=0.8;rounded=1;arcSize=12;edgeStyle=orthogonalEdgeStyle;startArrow=none;endArrow=block;endFill=1;exitX=1.003;exitY=0.5;exitPerimeter=0;entryX=-0.003;entryY=0.492;entryPerimeter=0;" edge="1" parent="1" source="ZJl0EIgOyHRKj7NYJLY0-23" target="ZJl0EIgOyHRKj7NYJLY0-49">
            <mxGeometry width="100" height="100" relative="1" as="geometry">
              <Array as="points" />
            </mxGeometry>
          </mxCell>
        </UserObject>
        <UserObject label="Par liste" lucidchartObjectId="ggN.4pF_rD0i" id="ZJl0EIgOyHRKj7NYJLY0-52">
          <mxCell style="html=1;overflow=block;blockSpacing=1;whiteSpace=wrap;fontSize=16.7;fontColor=#3a414a;spacing=9;strokeColor=#3a414a;strokeOpacity=100;rounded=1;absoluteArcSize=1;arcSize=9;strokeWidth=0.8;" vertex="1" parent="1">
            <mxGeometry x="1853" y="949" width="120" height="90" as="geometry" />
          </mxCell>
        </UserObject>
        <UserObject label="Gérer" lucidchartObjectId="ogN.dMnWWAUL" id="ZJl0EIgOyHRKj7NYJLY0-53">
          <mxCell style="html=1;overflow=block;blockSpacing=1;whiteSpace=wrap;fontSize=16.7;fontColor=#3a414a;spacing=9;strokeColor=#3a414a;strokeOpacity=100;rounded=1;absoluteArcSize=1;arcSize=9;strokeWidth=0.8;" vertex="1" parent="1">
            <mxGeometry x="1853" y="1069" width="120" height="90" as="geometry" />
          </mxCell>
        </UserObject>
        <mxCell id="ZJl0EIgOyHRKj7NYJLY0-54" value="" style="strokeColor=none;fillColor=none;whiteSpace=wrap;fontSize=16.7;fontColor=#3a414a;spacing=3.8;strokeOpacity=100;rounded=1;absoluteArcSize=1;arcSize=9;strokeWidth=0.8;html=1;" vertex="1" parent="1">
          <mxGeometry x="1980" y="1065" width="270" height="120" as="geometry" />
        </mxCell>
        <mxCell id="ZJl0EIgOyHRKj7NYJLY0-55" value="" style="shape=curlyBracket;rounded=1;flipH=1;whiteSpace=wrap;fontSize=16.7;fontColor=#3a414a;spacing=3.8;strokeColor=#3a414a;strokeOpacity=100;strokeWidth=0.8;" vertex="1" parent="ZJl0EIgOyHRKj7NYJLY0-54">
          <mxGeometry width="15" height="120" as="geometry" />
        </mxCell>
        <mxCell id="ZJl0EIgOyHRKj7NYJLY0-56" value="-Déplacer&#xa;-Supprimer" style="strokeColor=none;fillColor=none;whiteSpace=wrap;fontSize=16.7;fontColor=#3a414a;spacing=3.8;strokeOpacity=100;rounded=1;absoluteArcSize=1;arcSize=9;strokeWidth=0.8;" vertex="1" parent="ZJl0EIgOyHRKj7NYJLY0-54">
          <mxGeometry x="15" width="255" height="120" as="geometry" />
        </mxCell>
        <UserObject label="Consignes" lucidchartObjectId="ChN.a.CTA~j_" id="ZJl0EIgOyHRKj7NYJLY0-57">
          <mxCell style="html=1;overflow=block;blockSpacing=1;whiteSpace=wrap;fontSize=16.7;fontColor=#3a414a;spacing=9;strokeColor=#3a414a;strokeOpacity=100;rounded=1;absoluteArcSize=1;arcSize=9;strokeWidth=0.8;" vertex="1" parent="1">
            <mxGeometry x="990" y="540" width="120" height="90" as="geometry" />
          </mxCell>
        </UserObject>
        <UserObject label="" lucidchartObjectId=".hN.uv0NrpWr" id="ZJl0EIgOyHRKj7NYJLY0-58">
          <mxCell style="html=1;jettySize=18;whiteSpace=wrap;fontSize=13;strokeColor=#3a414a;strokeOpacity=100;strokeWidth=0.8;rounded=1;arcSize=12;edgeStyle=orthogonalEdgeStyle;startArrow=none;endArrow=block;endFill=1;exitX=1.003;exitY=0.5;exitPerimeter=0;entryX=-0.003;entryY=0.5;entryPerimeter=0;" edge="1" parent="1" source="ZJl0EIgOyHRKj7NYJLY0-10" target="ZJl0EIgOyHRKj7NYJLY0-57">
            <mxGeometry width="100" height="100" relative="1" as="geometry">
              <Array as="points" />
            </mxGeometry>
          </mxCell>
        </UserObject>
        <UserObject label="" lucidchartObjectId="aiN.rcxkn.dF" id="ZJl0EIgOyHRKj7NYJLY0-59">
          <mxCell style="html=1;jettySize=18;whiteSpace=wrap;fontSize=13;strokeColor=#3a414a;strokeOpacity=100;strokeWidth=0.8;rounded=1;arcSize=12;edgeStyle=orthogonalEdgeStyle;startArrow=none;endArrow=block;endFill=1;exitX=1.003;exitY=0.5;exitPerimeter=0;entryX=-0.003;entryY=0.508;entryPerimeter=0;" edge="1" parent="1" source="ZJl0EIgOyHRKj7NYJLY0-11" target="ZJl0EIgOyHRKj7NYJLY0-57">
            <mxGeometry width="100" height="100" relative="1" as="geometry">
              <Array as="points" />
            </mxGeometry>
          </mxCell>
        </UserObject>
        <mxCell id="ZJl0EIgOyHRKj7NYJLY0-60" value="" style="strokeColor=none;fillColor=none;whiteSpace=wrap;fontSize=16.7;fontColor=#3a414a;spacing=3.8;strokeOpacity=100;rounded=1;absoluteArcSize=1;arcSize=9;strokeWidth=0.8;html=1;" vertex="1" parent="1">
          <mxGeometry x="1140" y="315" width="60" height="120" as="geometry" />
        </mxCell>
        <mxCell id="ZJl0EIgOyHRKj7NYJLY0-61" value="" style="shape=curlyBracket;rounded=1;flipH=1;whiteSpace=wrap;fontSize=16.7;fontColor=#3a414a;spacing=3.8;strokeColor=#3a414a;strokeOpacity=100;strokeWidth=0.8;" vertex="1" parent="ZJl0EIgOyHRKj7NYJLY0-60">
          <mxGeometry width="15" height="120" as="geometry" />
        </mxCell>
        <mxCell id="ZJl0EIgOyHRKj7NYJLY0-62" value="-Visualiser&#xa;-Télécharger" style="strokeColor=none;fillColor=none;whiteSpace=wrap;fontSize=16.7;fontColor=#3a414a;spacing=3.8;strokeOpacity=100;rounded=1;absoluteArcSize=1;arcSize=9;strokeWidth=0.8;" vertex="1" parent="ZJl0EIgOyHRKj7NYJLY0-60">
          <mxGeometry x="15" width="45" height="120" as="geometry" />
        </mxCell>
        <UserObject label="" lucidchartObjectId="PiN.8G~et30i" id="ZJl0EIgOyHRKj7NYJLY0-63">
          <mxCell style="html=1;jettySize=18;whiteSpace=wrap;fontSize=13;strokeColor=#3a414a;strokeOpacity=100;strokeWidth=0.8;rounded=1;arcSize=12;edgeStyle=orthogonalEdgeStyle;startArrow=none;endArrow=block;endFill=1;exitX=1.003;exitY=0.5;exitPerimeter=0;entryX=-0.003;entryY=0.5;entryPerimeter=0;" edge="1" parent="1" source="ZJl0EIgOyHRKj7NYJLY0-57" target="ZJl0EIgOyHRKj7NYJLY0-28">
            <mxGeometry width="100" height="100" relative="1" as="geometry">
              <Array as="points" />
            </mxGeometry>
          </mxCell>
        </UserObject>
        <mxCell id="ZJl0EIgOyHRKj7NYJLY0-64" value="" style="strokeColor=none;fillColor=none;whiteSpace=wrap;fontSize=16.7;fontColor=#3a414a;spacing=3.8;strokeOpacity=100;rounded=1;absoluteArcSize=1;arcSize=9;strokeWidth=0.8;html=1;" vertex="1" parent="1">
          <mxGeometry x="1575" y="600" width="390" height="120" as="geometry" />
        </mxCell>
        <mxCell id="ZJl0EIgOyHRKj7NYJLY0-65" value="" style="shape=curlyBracket;rounded=1;flipH=1;whiteSpace=wrap;fontSize=16.7;fontColor=#3a414a;spacing=3.8;strokeColor=#3a414a;strokeOpacity=100;strokeWidth=0.8;" vertex="1" parent="ZJl0EIgOyHRKj7NYJLY0-64">
          <mxGeometry width="15" height="120" as="geometry" />
        </mxCell>
        <mxCell id="ZJl0EIgOyHRKj7NYJLY0-66" value="-Enregistrement pour finir plus tard&#xa;-Enregistrement final" style="strokeColor=none;fillColor=none;whiteSpace=wrap;fontSize=16.7;fontColor=#3a414a;spacing=3.8;strokeOpacity=100;rounded=1;absoluteArcSize=1;arcSize=9;strokeWidth=0.8;" vertex="1" parent="ZJl0EIgOyHRKj7NYJLY0-64">
          <mxGeometry x="15" width="375" height="120" as="geometry" />
        </mxCell>
        <mxCell id="ZJl0EIgOyHRKj7NYJLY0-67" value="" style="strokeColor=none;fillColor=none;whiteSpace=wrap;fontSize=16.7;fontColor=#3a414a;spacing=3.8;strokeOpacity=100;rounded=1;absoluteArcSize=1;arcSize=9;strokeWidth=0.8;html=1;" vertex="1" parent="1">
          <mxGeometry x="1605" y="724" width="345" height="120" as="geometry" />
        </mxCell>
        <mxCell id="ZJl0EIgOyHRKj7NYJLY0-68" value="" style="shape=curlyBracket;rounded=1;flipH=1;whiteSpace=wrap;fontSize=16.7;fontColor=#3a414a;spacing=3.8;strokeColor=#3a414a;strokeOpacity=100;strokeWidth=0.8;" vertex="1" parent="ZJl0EIgOyHRKj7NYJLY0-67">
          <mxGeometry width="15" height="120" as="geometry" />
        </mxCell>
        <mxCell id="ZJl0EIgOyHRKj7NYJLY0-69" value="Fiches de renseignement par outils ?" style="strokeColor=none;fillColor=none;whiteSpace=wrap;fontSize=16.7;fontColor=#3a414a;spacing=3.8;strokeOpacity=100;rounded=1;absoluteArcSize=1;arcSize=9;strokeWidth=0.8;" vertex="1" parent="ZJl0EIgOyHRKj7NYJLY0-67">
          <mxGeometry x="15" width="330" height="120" as="geometry" />
        </mxCell>
        <UserObject label="" lucidchartObjectId="ckN.MUtwZ-hb" id="ZJl0EIgOyHRKj7NYJLY0-70">
          <mxCell style="html=1;jettySize=18;whiteSpace=wrap;fontSize=13;strokeColor=#3a414a;strokeOpacity=100;strokeWidth=0.8;rounded=1;arcSize=12;edgeStyle=orthogonalEdgeStyle;startArrow=none;endArrow=block;endFill=1;exitX=1.003;exitY=0.5;exitPerimeter=0;entryX=-0.003;entryY=0.5;entryPerimeter=0;" edge="1" parent="1" source="ZJl0EIgOyHRKj7NYJLY0-49" target="ZJl0EIgOyHRKj7NYJLY0-52">
            <mxGeometry width="100" height="100" relative="1" as="geometry">
              <Array as="points" />
            </mxGeometry>
          </mxCell>
        </UserObject>
        <UserObject label="" lucidchartObjectId="fkN.vQ5NNRvj" id="ZJl0EIgOyHRKj7NYJLY0-71">
          <mxCell style="html=1;jettySize=18;whiteSpace=wrap;fontSize=13;strokeColor=#3a414a;strokeOpacity=100;strokeWidth=0.8;rounded=1;arcSize=12;edgeStyle=orthogonalEdgeStyle;startArrow=none;endArrow=block;endFill=1;exitX=1.003;exitY=0.5;exitPerimeter=0;entryX=-0.003;entryY=0.5;entryPerimeter=0;" edge="1" parent="1" source="ZJl0EIgOyHRKj7NYJLY0-49" target="ZJl0EIgOyHRKj7NYJLY0-53">
            <mxGeometry width="100" height="100" relative="1" as="geometry">
              <Array as="points" />
            </mxGeometry>
          </mxCell>
        </UserObject>
        <UserObject label="Affichage" lucidchartObjectId="-kN.FlH042fC" id="ZJl0EIgOyHRKj7NYJLY0-72">
          <mxCell style="html=1;overflow=block;blockSpacing=1;whiteSpace=wrap;fontSize=16.7;fontColor=#3a414a;spacing=9;strokeColor=#3a414a;strokeOpacity=100;rounded=1;absoluteArcSize=1;arcSize=9;strokeWidth=0.8;" vertex="1" parent="1">
            <mxGeometry x="1635" y="1204" width="120" height="36" as="geometry" />
          </mxCell>
        </UserObject>
        <UserObject label="Gérer les notifications" lucidchartObjectId="-kN.FlH042fC" id="ZJl0EIgOyHRKj7NYJLY0-73">
          <mxCell style="html=1;overflow=block;blockSpacing=1;whiteSpace=wrap;fontSize=16.7;fontColor=#3a414a;spacing=9;strokeColor=#3a414a;strokeOpacity=100;rounded=1;absoluteArcSize=1;arcSize=9;strokeWidth=0.8;" vertex="1" parent="1">
            <mxGeometry x="1635" y="1260" width="120" height="50" as="geometry" />
          </mxCell>
        </UserObject>
        <UserObject label="Confidentialité des données" lucidchartObjectId="-kN.FlH042fC" id="ZJl0EIgOyHRKj7NYJLY0-74">
          <mxCell style="html=1;overflow=block;blockSpacing=1;whiteSpace=wrap;fontSize=16.7;fontColor=#3a414a;spacing=9;strokeColor=#3a414a;strokeOpacity=100;rounded=1;absoluteArcSize=1;arcSize=9;strokeWidth=0.8;" vertex="1" parent="1">
            <mxGeometry x="1635" y="1320" width="120" height="50" as="geometry" />
          </mxCell>
        </UserObject>
        <UserObject label="Synthèse des données recueillies" lucidchartObjectId="-kN.FlH042fC" id="ZJl0EIgOyHRKj7NYJLY0-75">
          <mxCell style="html=1;overflow=block;blockSpacing=1;whiteSpace=wrap;fontSize=16.7;fontColor=#3a414a;spacing=9;strokeColor=#3a414a;strokeOpacity=100;rounded=1;absoluteArcSize=1;arcSize=9;strokeWidth=0.8;" vertex="1" parent="1">
            <mxGeometry x="1635" y="1384" width="120" height="76" as="geometry" />
          </mxCell>
        </UserObject>
        <UserObject label="Contact/Besoin d&#39;aide" lucidchartObjectId="-kN.FlH042fC" id="ZJl0EIgOyHRKj7NYJLY0-76">
          <mxCell style="html=1;overflow=block;blockSpacing=1;whiteSpace=wrap;fontSize=16.7;fontColor=#3a414a;spacing=9;strokeColor=#3a414a;strokeOpacity=100;rounded=1;absoluteArcSize=1;arcSize=9;strokeWidth=0.8;" vertex="1" parent="1">
            <mxGeometry x="1635" y="1470" width="125" height="50" as="geometry" />
          </mxCell>
        </UserObject>
        <UserObject label="Tout effacer" lucidchartObjectId="-kN.FlH042fC" id="ZJl0EIgOyHRKj7NYJLY0-77">
          <mxCell style="html=1;overflow=block;blockSpacing=1;whiteSpace=wrap;fontSize=16.7;fontColor=#3a414a;spacing=9;strokeColor=#3a414a;strokeOpacity=100;rounded=1;absoluteArcSize=1;arcSize=9;strokeWidth=0.8;" vertex="1" parent="1">
            <mxGeometry x="1637.5" y="1530" width="120" height="30" as="geometry" />
          </mxCell>
        </UserObject>
        <UserObject label="Se déconnecter" lucidchartObjectId="-kN.FlH042fC" id="ZJl0EIgOyHRKj7NYJLY0-78">
          <mxCell style="html=1;overflow=block;blockSpacing=1;whiteSpace=wrap;fontSize=16.7;fontColor=#3a414a;spacing=9;strokeColor=#3a414a;strokeOpacity=100;rounded=1;absoluteArcSize=1;arcSize=9;strokeWidth=0.8;" vertex="1" parent="1">
            <mxGeometry x="1640" y="1570" width="120" height="50" as="geometry" />
          </mxCell>
        </UserObject>
        <UserObject label="Chat" lucidchartObjectId="-kN.FlH042fC" id="ZJl0EIgOyHRKj7NYJLY0-79">
          <mxCell style="html=1;overflow=block;blockSpacing=1;whiteSpace=wrap;fontSize=16.7;fontColor=#3a414a;spacing=9;strokeColor=#3a414a;strokeOpacity=100;rounded=1;absoluteArcSize=1;arcSize=9;strokeWidth=0.8;" vertex="1" parent="1">
            <mxGeometry x="1640" y="1739" width="120" height="30" as="geometry" />
          </mxCell>
        </UserObject>
        <UserObject label="Téléphone" lucidchartObjectId="-kN.FlH042fC" id="ZJl0EIgOyHRKj7NYJLY0-80">
          <mxCell style="html=1;overflow=block;blockSpacing=1;whiteSpace=wrap;fontSize=16.7;fontColor=#3a414a;spacing=9;strokeColor=#3a414a;strokeOpacity=100;rounded=1;absoluteArcSize=1;arcSize=9;strokeWidth=0.8;" vertex="1" parent="1">
            <mxGeometry x="1640" y="1700" width="120" height="30" as="geometry" />
          </mxCell>
        </UserObject>
        <UserObject label="Mail" lucidchartObjectId="-kN.FlH042fC" id="ZJl0EIgOyHRKj7NYJLY0-81">
          <mxCell style="html=1;overflow=block;blockSpacing=1;whiteSpace=wrap;fontSize=16.7;fontColor=#3a414a;spacing=9;strokeColor=#3a414a;strokeOpacity=100;rounded=1;absoluteArcSize=1;arcSize=9;strokeWidth=0.8;" vertex="1" parent="1">
            <mxGeometry x="1640" y="1660" width="120" height="30" as="geometry" />
          </mxCell>
        </UserObject>
        <mxCell id="ZJl0EIgOyHRKj7NYJLY0-82" value="Télécharger un récapitulatif des données (.pdf?)" style="text;html=1;strokeColor=none;fillColor=none;align=center;verticalAlign=middle;whiteSpace=wrap;rounded=0;" vertex="1" parent="1">
          <mxGeometry x="1760" y="1400.5" width="102" height="43" as="geometry" />
        </mxCell>
        <mxCell id="ZJl0EIgOyHRKj7NYJLY0-83" value="Action irréversible" style="text;html=1;strokeColor=none;fillColor=none;align=center;verticalAlign=middle;whiteSpace=wrap;rounded=0;" vertex="1" parent="1">
          <mxGeometry x="1770" y="1520" width="102" height="43" as="geometry" />
        </mxCell>
        <mxCell id="ZJl0EIgOyHRKj7NYJLY0-84" value="Nature et fréquence" style="text;html=1;strokeColor=none;fillColor=none;align=center;verticalAlign=middle;whiteSpace=wrap;rounded=0;" vertex="1" parent="1">
          <mxGeometry x="1770" y="1267" width="102" height="43" as="geometry" />
        </mxCell>
        <mxCell id="ZJl0EIgOyHRKj7NYJLY0-85" value="Rappel consentement éclairé et Loi RGPD" style="text;html=1;strokeColor=none;fillColor=none;align=center;verticalAlign=middle;whiteSpace=wrap;rounded=0;" vertex="1" parent="1">
          <mxGeometry x="1770" y="1323.5" width="120" height="43" as="geometry" />
        </mxCell>
        <mxCell id="ZJl0EIgOyHRKj7NYJLY0-89" value="Action irréversible" style="text;html=1;strokeColor=none;fillColor=none;align=center;verticalAlign=middle;whiteSpace=wrap;rounded=0;" vertex="1" parent="1">
          <mxGeometry x="1568" y="1838.5" width="102" height="43" as="geometry" />
        </mxCell>
      </root>
    </mxGraphModel>
  </diagram>
</mxfile>
